<svg xmlns="http://www.w3.org/2000/svg" xmlns:xlink="http://www.w3.org/1999/xlink" viewBox="0,0,255.987,255.987" width="240px" height="240px" fill-rule="nonzero"><g fill="none" fill-rule="nonzero" stroke="none" stroke-width="1" stroke-linecap="butt" stroke-linejoin="miter" stroke-miterlimit="10" stroke-dasharray="" stroke-dashoffset="0" font-family="none" font-weight="none" font-size="none" text-anchor="none" style="mix-blend-mode: normal"><g transform="scale(5.33333,5.33333)"><path d="M24,4c-5.5,0 -10,4.5 -10,10v4h4v-4c0,-3.3 2.7,-6 6,-6c3.3,0 6,2.7 6,6v4h4v-4c0,-5.5 -4.5,-10 -10,-10z" fill="#764747"></path><path d="M36,44h-24c-2.2,0 -4,-1.8 -4,-4v-18c0,-2.2 1.8,-4 4,-4h24c2.2,0 4,1.8 4,4v18c0,2.2 -1.8,4 -4,4z" fill="#8e7b63"></path><path d="M24,28c-1.65685,0 -3,1.34315 -3,3c0,1.65685 1.34315,3 3,3c1.65685,0 3,-1.34315 3,-3c0,-1.65685 -1.34315,-3 -3,-3z" fill="#eee6dc"></path></g></g></svg>